<svg xmlns="http://www.w3.org/2000/svg" preserveAspectRatio = "none" viewBox="0 0 570.67978 352.13258"><defs><style>.a,.c{fill:#fff;stroke-miterlimit:10;stroke-width:3.35488px;}.a{stroke:gray;}.b{fill:#d8e6e6;opacity:0.33;}.c{stroke:#b3b3b3;}</style></defs><path class="a" d="M1.754,241.90979c-3.17209-51.0358,55.47193-83.94726,89.5338-74.46313,0,0-62.52282-119.60731,85.62827-102.27959,0,0,53.46246-67.42194,126.05121-63.24617,75.30331,4.33193,98.22172,76.242,98.22172,76.242s150.60663-49.384,133.41783,105.69907c0,0,94.12915,66.71172-27.011,105.69908,0,0-72.84778,100.50076-153.21021,21.26924-4.52293-4.45929-84.15895,78.36514-162.73632-4.80791-52.38492,51.11677-83.9234-23.945-89.21806-23.39242C87.29556,284.20971,5.84659,307.75511,1.754,241.90979Z"/><path class="b" d="M1.754,241.90978C-1.41808,190.874,57.226,157.96253,91.28781,167.44666c0,0,23.72673-5.87034,47.0545,1.39219,19.69752,6.13234,35.98923,24.94459,69.195,30.85529,32.33682,5.756,45.94412-20.26844,88.41428-19.35,20.70459.44777,66.913,30.5526,89.559,29.04354,21.59362-1.43894,28.659-15.00078,51.74588-18.68875,15.5326-2.48121,46.71441,5.58973,62.82248,1.91687q17.0708-3.89238,34.528-8.75389S628.736,250.57364,507.5959,289.561c0,0-72.84778,100.50079-153.2102,21.26925-4.523-4.45929-84.159,78.36513-162.73636-4.80791-52.38494,51.11677-83.92337-23.945-89.21806-23.39241C87.29557,284.20973,5.84658,307.75512,1.754,241.90978Z"/><path class="c" d="M103.01609,145.25294c-1.7-1.743-11.591-12.21365-10.8696-27.61277.69925-14.9282,11.08641-28.39851,26.08705-33.36544"/><path class="c" d="M417.14765,94.62952c3.98156-2.24,28.30084-15.39,55.435-4.60213,24.42119,9.70925,41.454,34.965,43.47842,64.42981"/></svg>