<svg xmlns="http://www.w3.org/2000/svg" preserveAspectRatio = "none" viewBox="0 0 1242 2208"><defs><style>.a{fill:#7fcdee;}.b{fill:#ebfff0;stroke:#e0ffff;stroke-width:29px;}.b,.m,.n,.o,.p,.q,.r,.s,.t,.u{stroke-miterlimit:10;}.c{fill:#63770a;}.d{fill:#a9ddf3;}.e{fill:#54bce8;}.f{fill:#29abe2;}.g{fill:#459c9f;}.h{fill:#d4eef9;}.i{fill:#849f0d;}.j{fill:#c9c054;}.k{fill:#a7bd5e;}.l{fill:#2a590a;}.m,.o,.q,.s{fill:none;}.m,.n,.o,.p,.q,.r,.s,.t,.u{stroke:#e0dd68;}.m,.n{stroke-width:1.95778px;}.n,.p,.r,.t,.u{fill:#e0dd68;}.o,.p{stroke-width:1.38004px;}.q,.r{stroke-width:0.91645px;}.s,.t{stroke-width:2.06661px;}.u{stroke-width:0.76143px;}.v{fill:#fff;opacity:0.39;}</style></defs><path class="a" d="M0,1964c1-13,24-12,255.70213-38C623.74922,1884.70032,631,1887,649,1887s593-2,593-2v246L1,2113Z"/><path class="b" d="M.5,2005.5c71.03964-.67862-64.96654,2.02573,1242-28"/><ellipse class="c" cx="401.5" cy="2086.5" rx="140.5" ry="98.5"/><polygon class="a" points="1242 673.637 0 847 0 564.667 1242 444.374 1242 673.637"/><polygon class="d" points="1242 1243 0 1243 0 844 1242 599 1242 1243"/><polygon class="e" points="1242 444.374 0 564.667 0 158.503 1242 282.333 1242 444.374"/><polygon class="f" points="1242 282.333 0 158.503 0 0 1242 0 1242 282.333"/><polygon class="g" points="0 921.043 113 843 285.574 958 679 570 1018 756 1247.967 643.043 1242 1466 0 1493.438 0 921.043"/><polygon class="h" points="679 570 834.5 760.5 771.5 823.5 840 836 831.702 912.5 1018 756 679 570"/><path class="h" d="M1,913s76-67,115-72S285.57447,958,285.57447,958L163,1029,77,987l51-7L.6383,927.44681,117,843"/><path class="i" d="M0,1442s-9,1,32.38293-5c210.86208-30.57232,299.5857-175.11133,556.361-261.69836,6.09137-2.05408,10.296-3.46827,16.2561-5.30164,2.02545-.623,149.04218-42.33655,340,23,151.49371,51.83386,297,145.39963,297,199,0,110,1.33334,281.33337-1,422L0,1612Z"/><path class="c" d="M609,1193c107,4,140.15857,27.05823,203,74,141.34149,105.58032,137.70569,134.77112,197,176,40.46747,28.13806,130.28859,70.4231,233,82v279C1112,2026,1.58716,1797.57446,0,1681c-.18921-13.89709,7.62085-39.06543,48-71,34.67468-27.423-67-165-44-169C340.58214,1382.464,398.71313,1185.13879,609,1193Z"/><path class="i" d="M841,1840S509,1451,0,1493v388Z"/><path class="j" d="M0,1934s1242-19,1242-45V1767s-289-73-869-29C130.5393,1756.39357,0,1862,0,1862Z"/><path class="k" d="M.78992,1829.47066s187.3653,6.76526,323.08452,40.432S494,1924,494,1924L0,1959Z"/><path class="h" d="M417,448l479-20c-1.111-.43109-2.86658-1.121-5-2-72.76654-29.97922-84.02618-73.35873-127-76a126.499,126.499,0,0,0-45,6c-15.30835,5.10468-23.99994,9-24,9-10.19293,4.56818-12.82648,6.7659-20,8a46.57312,46.57312,0,0,1-21-1c-5.91174-1.7298-6.25592-3.24155-14-6a78.03117,78.03117,0,0,0-17-4,67.0814,67.0814,0,0,0-28,3c-12.00464,3.96613-20.80634,10.79648-31.04529,18.74219-5.20959,4.04278-5.74615,4.96423-9.19848,6.94357A48.69368,48.69368,0,0,1,528,397c-14.67474-.99-17.69305-8.65811-31.95032-7.91571A42.85069,42.85069,0,0,0,483,392C457.68188,401.06561,420.75049,443.63467,417,448Z"/><path class="h" d="M1242,176.95745,956,179s35-63,79-63,33,24,66,25,63-22,103-20,38,8.08511,38,8.08511Z"/><path class="i" d="M1,2057s418.7913-12.05484,708,14c333,30,533,15,533,15v122H0l1-151"/><polygon class="l" points="558 1782 609 1599 655.532 1782 558 1782"/><polygon class="l" points="639 1759 672.989 1637.04 704 1759 639 1759"/><polygon class="l" points="25 1527 58.989 1405.04 90 1527 25 1527"/><polygon class="l" points="48 1546 81.989 1424.04 113 1546 48 1546"/><polygon class="l" points="81 1527 114.989 1405.04 146 1527 81 1527"/><polygon class="l" points="278 1759 329 1576 375.532 1759 278 1759"/><polygon class="l" points="509 1759 560 1576 606.532 1759 509 1759"/><polygon class="l" points="327 1804 378 1621 424.532 1804 327 1804"/><polygon class="l" points="382 1776 433 1593 479.532 1776 382 1776"/><polygon class="l" points="792 1790 843 1607 889.532 1790 792 1790"/><polygon class="l" points="849 1776 900 1593 946.532 1776 849 1776"/><polygon class="l" points="927 1804 978 1621 1024.532 1804 927 1804"/><polygon class="l" points="985 1767 1036 1584 1082.532 1767 985 1767"/><polygon class="l" points="1011 1804 1062 1621 1108.532 1804 1011 1804"/><polygon class="l" points="1060 1810 1111 1627 1157.532 1810 1060 1810"/><polygon class="l" points="1109 1851 1160 1668 1206.532 1851 1109 1851"/><path class="m" d="M882.04361,2179.43083s-11.74669-53.839-25.12485-76.35345c-14.08555-23.70494-34.26117-35.56635-39.80821-37.85042"/><path class="n" d="M817.99919,2065.39011s35.004,5.71019,42.18253,23.33022,2.61038,25.77744,2.61038,25.77744-10.91177-25.23459-27.0008-36.12188C820.69981,2068.16363,817.99919,2065.39011,817.99919,2065.39011Z"/><path class="o" d="M905.5397,2177.06281s5.60775-38.43688,2.36709-56.611c-3.412-19.13506-13.78072-31.9669-16.8739-34.8502"/><path class="p" d="M891.57873,2085.92976s21.67851,12.45243,22.04309,25.859-4.6734,17.65535-4.6734,17.65535-.93846-19.35686-8.85257-30.53206C892.67243,2088.42975,891.57873,2085.92976,891.57873,2085.92976Z"/><path class="q" d="M958.46435,2173.54349s6.58929-30.33976,6.30145-44.17175c-.303-14.56335-5.17383-23.62514-6.7092-25.59477"/><path class="r" d="M958.34328,2103.98422s11.43664,7.78137,10.47872,18.16147-4.23829,14.1189-4.23829,14.1189,1.14506-14.9512-2.45228-22.94034C958.75713,2105.83045,958.34328,2103.98422,958.34328,2103.98422Z"/><path class="s" d="M933.32366,2191.29858s12.70423-56.76452,9.91261-84.2683c-2.93923-28.958-16.97675-49.28751-21.27083-53.94152"/><path class="t" d="M922.74354,2053.64024s30.96876,21.03709,30.00276,41.0977-8.9677,25.83754-8.9677,25.83754.77942-29.01058-9.77939-46.58969C924.09507,2057.49661,922.74354,2053.64024,922.74354,2053.64024Z"/><path class="q" d="M175.46435,2133.54349s6.58929-30.33976,6.30145-44.17175c-.30305-14.56335-5.17383-23.62514-6.7092-25.59477"/><path class="r" d="M175.34328,2063.98422s11.43664,7.78137,10.47872,18.16147-4.23829,14.1189-4.23829,14.1189,1.14506-14.9512-2.45228-22.94034C175.75713,2065.83045,175.34328,2063.98422,175.34328,2063.98422Z"/><path class="s" d="M150.32366,2151.29858s12.70423-56.76452,9.91261-84.2683c-2.93923-28.958-16.97675-49.28751-21.27083-53.94152"/><path class="t" d="M139.74354,2013.64024s30.96876,21.03709,30.00276,41.0977-8.9677,25.83754-8.9677,25.83754.77942-29.01058-9.77939-46.58969C141.09507,2017.49661,139.74354,2013.64024,139.74354,2013.64024Z"/><path class="s" d="M83.32366,2173.29858s12.70423-56.76452,9.91261-84.2683c-2.93923-28.958-16.97675-49.28751-21.27083-53.94152"/><path class="t" d="M72.74354,2035.64024s30.96876,21.03709,30.00276,41.0977-8.9677,25.83754-8.9677,25.83754.77942-29.01058-9.77939-46.58969C74.09507,2039.49661,72.74354,2035.64024,72.74354,2035.64024Z"/><path class="u" d="M1056.57751,2208c0-37.39727-46.94266-43.61929-69.79086-43.61929-13.70892,0-65.63664,6.222-65.63664,43.61929"/><path class="r" d="M1239.5,2208c0-45.01121-48.36183-63.5-81-63.5-37,0-82,18.48879-82,63.5"/><polygon class="c" points="0 2172.5 228.5 2185 0 2185 0 2172.5"/><rect class="v" width="1242" height="2208"/></svg>